<svg width="26" height="24" viewBox="0 0 26 24" fill="none" xmlns="http://www.w3.org/2000/svg">
<path d="M22.1484 8.58003V15.42C22.1484 16.54 21.5324 17.58 20.5365 18.15L14.438 21.58C13.4422 22.14 12.2102 22.14 11.204 21.58L5.10554 18.15C4.10966 17.59 3.49365 16.55 3.49365 15.42V8.58003C3.49365 7.46003 4.10966 6.41999 5.10554 5.84999L11.204 2.42C12.1999 1.86 13.4319 1.86 14.438 2.42L20.5365 5.84999C21.5324 6.41999 22.1484 7.45003 22.1484 8.58003Z" stroke="#121212" stroke-width="1.5" stroke-linecap="round" stroke-linejoin="round"/>
<path d="M12.8262 10.9998C14.1474 10.9998 15.2184 9.95662 15.2184 8.6698C15.2184 7.38298 14.1474 6.33984 12.8262 6.33984C11.5051 6.33984 10.4341 7.38298 10.4341 8.6698C10.4341 9.95662 11.5051 10.9998 12.8262 10.9998Z" stroke="#121212" stroke-width="1.5" stroke-linecap="round" stroke-linejoin="round"/>
<path d="M16.9329 16.6594C16.9329 14.8594 15.0952 13.3994 12.8262 13.3994C10.5572 13.3994 8.71948 14.8594 8.71948 16.6594" stroke="#121212" stroke-width="1.5" stroke-linecap="round" stroke-linejoin="round"/>
</svg>
